<svg xmlns="http://www.w3.org/2000/svg" xmlns:xlink="http://www.w3.org/1999/xlink" width="1080" zoomAndPan="magnify" viewBox="0 0 810 809.999993" height="1080" preserveAspectRatio="xMidYMid meet" version="1.0">
  <defs>
    <clipPath id="59011246af">
      <path d="M 809 446 L 809.769531 446 L 809.769531 511 L 809 511 Z M 809 446 " clip-rule="nonzero"/>
    </clipPath>
    <clipPath id="d5e753137c">
      <path d="M 806 551 L 809.769531 551 L 809.769531 652 L 806 652 Z M 806 551 " clip-rule="nonzero"/>
    </clipPath>
  </defs>
  <!-- Se han eliminado los dos elementos <rect> que creaban el fondo blanco -->
  <path fill="#a57f12" d="M 111.371094 149.214844 C 111.371094 149.214844 406.683594 120.347656 671.082031 149.214844 C 671.082031 149.214844 701.183594 476.917969 671.082031 708.667969 C 671.082031 708.667969 376.585938 736.316406 111.371094 708.667969 C 111.371094 708.667969 73.949219 415.929688 111.371094 149.214844 Z M 111.371094 149.214844 " fill-opacity="1" fill-rule="nonzero"/>
  <path fill="#fab720" d="M 354.617188 165.070312 C 354.617188 165.070312 401.804688 48.382812 423.363281 22.363281 C 423.363281 22.363281 459.15625 115.46875 471.769531 167.105469 C 471.769531 167.105469 568.984375 171.167969 575.492188 173.203125 C 575.492188 173.203125 632.847656 147.589844 679.21875 137.832031 C 679.21875 137.832031 678.40625 147.179688 644.644531 217.113281 L 651.558594 346.40625 L 780.097656 391.941406 L 654 424.875 C 654 424.875 648.304688 637.515625 641.796875 681.832031 C 641.796875 681.832031 471.359375 692.402344 445.328125 692.402344 C 445.328125 692.402344 426.617188 754.609375 409.125 774.53125 C 409.125 774.53125 383.5 721.269531 375.769531 694.03125 C 375.769531 694.03125 189.878906 688.339844 136.59375 681.832031 C 136.59375 681.832031 124.390625 532.210938 122.761719 424.46875 L 12.933594 400.074219 L 126.015625 348.84375 C 126.015625 348.84375 134.558594 195.15625 137 176.457031 C 137 176.457031 333.46875 163.445312 354.617188 165.070312 Z M 354.617188 165.070312 " fill-opacity="1" fill-rule="nonzero"/>
  <path fill="#ffffff" d="M 358.28125 279.320312 C 358.28125 279.320312 393.667969 125.226562 420.109375 87.414062 C 420.109375 87.414062 450.210938 174.421875 461.191406 285.417969 C 461.191406 285.417969 553.933594 208.574219 638.542969 173.203125 C 638.542969 173.203125 586.070312 269.15625 520.988281 350.472656 L 714.609375 391.535156 L 507.15625 425.6875 C 507.15625 425.6875 587.695312 503.34375 636.101562 623.691406 C 636.101562 623.691406 521.394531 559.046875 458.34375 513.101562 L 408.71875 710.292969 C 408.71875 710.292969 370.074219 594.417969 367.636719 502.125 C 367.636719 502.125 266.351562 613.933594 167.097656 643.207031 C 167.097656 643.207031 213.0625 529.773438 304.992188 424.875 L 75.984375 397.632812 C 75.984375 397.632812 160.996094 355.757812 275.707031 338.679688 L 190.285156 182.554688 C 190.285156 182.554688 311.910156 247.199219 358.28125 279.320312 Z M 358.28125 279.320312 " fill-opacity="1" fill-rule="nonzero"/>
  <g clip-path="url(#59011246af)">
    <path fill="#1a5fa5" d="M 827.28125 448.863281 L 827.28125 474.070312 L 839.078125 474.070312 C 841.925781 474.070312 843.960938 473.664062 845.179688 472.445312 C 846.398438 471.226562 847.214844 468.785156 847.621094 465.53125 L 849.246094 465.53125 L 849.246094 487.488281 L 847.621094 487.488281 C 847.621094 485.046875 847.214844 483.015625 846.808594 482.203125 C 846.398438 480.984375 845.585938 480.167969 844.367188 479.355469 C 843.144531 478.949219 841.519531 478.542969 839.484375 478.542969 L 827.6875 478.542969 L 827.6875 498.871094 C 827.6875 502.125 827.6875 504.15625 828.503906 505.378906 C 828.910156 506.191406 829.722656 507.003906 830.535156 507.410156 C 832.164062 508.222656 833.382812 508.628906 835.011719 508.628906 L 837.453125 508.628906 L 837.453125 510.257812 L 809.792969 510.257812 L 809.792969 508.628906 L 811.824219 508.628906 C 814.671875 508.628906 816.300781 507.816406 817.519531 506.191406 C 818.332031 505.378906 818.738281 502.9375 818.738281 498.871094 L 818.738281 457.402344 C 818.738281 454.148438 818.738281 452.117188 818.332031 450.894531 C 817.925781 450.082031 817.113281 449.269531 816.300781 448.863281 C 815.078125 448.050781 813.453125 447.644531 811.824219 447.644531 L 809.792969 447.644531 L 809.792969 446.015625 L 857.789062 446.015625 L 858.601562 460.246094 L 856.976562 460.246094 C 856.164062 457.402344 855.347656 454.960938 854.128906 453.742188 C 852.910156 452.117188 851.6875 451.300781 850.0625 450.488281 C 848.433594 449.675781 845.992188 449.675781 842.738281 449.675781 L 827.28125 449.675781 Z M 827.28125 448.863281 " fill-opacity="1" fill-rule="nonzero"/>
  </g>
  <g clip-path="url(#d5e753137c)">
    <path fill="#f7b724" d="M 806.945312 551.726562 L 806.945312 651.746094 L 2649.191406 651.746094 L 2649.191406 551.726562 Z M 806.945312 551.726562 " fill-opacity="1" fill-rule="nonzero"/>
  </g>
</svg>